 <svg  version="1.0" xmlns="http://www.w3.org/2000/svg"  width="318.000000pt" height="360.000000pt" viewBox="0 0 318.000000 360.000000"  preserveAspectRatio="xMidYMid meet">  <g transform="translate(0.000000,360.000000) scale(0.100000,-0.100000)" fill="#0b4dc7" stroke="none"> <path d="M0 1800 l0 -1800 1590 0 1590 0 0 1800 0 1800 -1590 0 -1590 0 0 -1800z m2894 1638 c3 -7 12 -47 20 -88 9 -41 25 -115 36 -164 18 -80 19 -100 9 -220 -11 -138 -11 -135 36 -314 15 -57 24 -113 21 -125 -4 -15 -55 -52 -161 -116 -147 -89 -195 -127 -195 -156 0 -22 -46 -153 -59 -169 -7 -9 -25 -16 -39 -16 -26 0 -26 -2 -6 -93 6 -26 0 -35 -57 -88 -72 -67 -95 -76 -149 -60 -26 8 -46 8 -65 1 -44 -17 -59 -12 -122 38 -74 57 -85 79 -77 143 6 46 5 49 -19 58 -31 12 -41 30 -77 133 -15 44 -36 88 -45 98 -10 11 -87 63 -171 116 -125 78 -154 101 -154 119 0 13 16 85 35 161 37 145 41 187 25 244 -24 82 -10 219 36 360 8 25 14 61 14 80 0 46 12 63 41 58 20 -2 37 -29 100 -152 41 -81 82 -152 91 -157 9 -5 49 -2 99 7 284 51 228 51 529 -1 67 -12 87 -12 97 -2 6 6 46 81 88 165 59 117 81 152 96 152 11 0 21 -6 23 -12z m-1084 -1627 c6 -12 10 -98 10 -210 l0 -191 109 0 c160 0 457 -50 530 -89 25 -13 24 -31 -4 -41 -19 -7 -51 -6 -113 5 -67 12 -98 13 -132 5 -25 -6 -97 -14 -160 -19 -63 -5 -135 -15 -160 -21 -25 -7 -51 -14 -57 -16 -10 -3 -13 -122 -13 -553 l0 -550 -22 -15 c-20 -14 -116 -16 -835 -16 -503 0 -821 4 -837 10 l-26 10 0 843 c0 642 3 846 12 855 9 9 211 12 850 12 818 0 838 0 848 -19z"/> <path d="M1935 2680 c-10 -16 1 -26 88 -76 127 -73 129 -75 144 -62 20 16 17 77 -4 84 -10 3 -26 10 -35 15 -9 5 -36 12 -60 15 -24 4 -55 13 -70 20 -32 17 -54 18 -63 4z"/> <path d="M2640 2676 c-14 -7 -43 -16 -66 -20 -23 -3 -58 -13 -79 -22 -35 -14 -37 -17 -32 -51 8 -44 25 -57 52 -38 11 8 37 24 57 35 69 37 129 82 125 94 -5 16 -28 17 -57 2z"/> <path d="M265 1647 c-3 -7 -4 -129 -3 -271 l3 -259 105 -2 c137 -2 227 -24 330 -81 95 -52 94 -52 181 18 149 121 437 259 634 304 66 15 124 30 128 34 11 9 13 242 3 258 -11 18 -1375 17 -1381 -1z"/> <path d="M1525 1130 c-131 -56 -255 -122 -337 -182 -207 -149 -287 -220 -381 -333 -27 -33 -56 -64 -64 -68 -21 -13 -49 17 -62 67 -14 58 -94 177 -172 257 -65 66 -196 160 -227 163 -16 1 -17 -30 -20 -381 l-2 -383 695 0 c549 0 695 3 695 13 3 151 -1 871 -5 878 -9 14 -23 11 -120 -31z"/> </g> </svg> 